<?xml version="1.0" encoding="utf-8"?>
<!-- Generator: Adobe Illustrator 23.1.1, SVG Export Plug-In . SVG Version: 6.00 Build 0)  -->
<svg version="1.1" id="Calque_1" xmlns="http://www.w3.org/2000/svg" xmlns:xlink="http://www.w3.org/1999/xlink" x="0px" y="0px"
	 viewBox="0 0 212 92" style="enable-background:new 0 0 212 92;" xml:space="preserve">
<style type="text/css">
	.st0{fill:#E52633;}
	.st1{fill:#DF0635;}
	.st2{fill:#FFFFFF;}
</style>
<g>
	<path class="st0" d="M178.9,10.5V9.6h1v0.9H178.9L178.9,10.5z M180.8,10.5V9.6h1v0.9H180.8L180.8,10.5z M182.6,10.5V9.6h1v0.9
		H182.6L182.6,10.5z M184.5,10.5V9.6h1v0.9H184.5L184.5,10.5z M186.4,10.5V9.6h1v0.9H186.4L186.4,10.5z M188.2,10.5V9.6h1v0.9H188.2
		L188.2,10.5z M190.1,10.5V9.6h1v0.9H190.1L190.1,10.5z M192,10.5V9.6h1v0.9H192L192,10.5z M193.8,10.5V9.6h1v0.9H193.8L193.8,10.5z
		 M195.8,10.5V9.6h1v0.9H195.8L195.8,10.5z M197.6,10.5V9.6h1v0.9H197.6L197.6,10.5z M178.9,11.5v-0.9h1v0.9H178.9L178.9,11.5z
		 M179.9,11.5v-0.9h1v0.9H179.9L179.9,11.5z M182.6,11.5v-0.9h1v0.9H182.6L182.6,11.5z M184.5,11.5v-0.9h1v0.9H184.5L184.5,11.5z
		 M185.5,11.5v-0.9h1v0.9H185.5L185.5,11.5z M187.3,11.5v-0.9h1v0.9H187.3L187.3,11.5z M189.2,11.5v-0.9h1v0.9H189.2L189.2,11.5z
		 M190.1,11.5v-0.9h1v0.9H190.1L190.1,11.5z M191.1,11.5v-0.9h1v0.9H191.1L191.1,11.5z M192.9,11.5v-0.9h1v0.9H192.9L192.9,11.5z
		 M195.8,11.5v-0.9h1v0.9H195.8L195.8,11.5z M196.7,11.5v-0.9h1v0.9H196.7L196.7,11.5z M198.5,11.5v-0.9h1v0.9H198.5L198.5,11.5z
		 M178.9,12.4v-0.9h1v0.9H178.9L178.9,12.4z M181.8,12.4v-0.9h1v0.9H181.8L181.8,12.4z M183.6,12.4v-0.9h1v0.9H183.6L183.6,12.4z
		 M184.5,12.4v-0.9h1v0.9H184.5L184.5,12.4z M186.4,12.4v-0.9h1v0.9H186.4L186.4,12.4z M191.1,12.4v-0.9h1v0.9H191.1L191.1,12.4z
		 M197.6,12.4v-0.9h1v0.9H197.6L197.6,12.4z M178.9,13.4v-0.9h1v0.9H178.9L178.9,13.4z M182.6,13.4v-0.9h1v0.9H182.6L182.6,13.4z
		 M183.6,13.4v-0.9h1v0.9H183.6L183.6,13.4z M184.5,13.4v-0.9h1v0.9H184.5L184.5,13.4z M186.4,13.4v-0.9h1v0.9H186.4L186.4,13.4z
		 M188.2,13.4v-0.9h1v0.9H188.2L188.2,13.4z M190.1,13.4v-0.9h1v0.9H190.1L190.1,13.4z M192,13.4v-0.9h1v0.9H192L192,13.4z
		 M193.8,13.4v-0.9h1v0.9H193.8L193.8,13.4z M197.6,13.4v-0.9h1v0.9H197.6L197.6,13.4z M198.5,13.4v-0.9h1v0.9H198.5L198.5,13.4z
		 M178.9,14.3v-0.9h1v0.9H178.9L178.9,14.3z M179.9,14.3v-0.9h1v0.9H179.9L179.9,14.3z M186.4,14.3v-0.9h1v0.9H186.4L186.4,14.3z
		 M187.3,14.3v-0.9h1v0.9H187.3L187.3,14.3z M189.2,14.3v-0.9h1v0.9H189.2L189.2,14.3z M192,14.3v-0.9h1v0.9H192L192,14.3z
		 M193.8,14.3v-0.9h1v0.9H193.8L193.8,14.3z M194.8,14.3v-0.9h1v0.9H194.8L194.8,14.3z M195.8,14.3v-0.9h1v0.9H195.8L195.8,14.3z
		 M196.7,14.3v-0.9h1v0.9H196.7L196.7,14.3z M197.6,14.3v-0.9h1v0.9H197.6L197.6,14.3z M178.9,15.2v-0.9h1v0.9H178.9L178.9,15.2z
		 M179.9,15.2v-0.9h1v0.9H179.9L179.9,15.2z M182.6,15.2v-0.9h1v0.9H182.6L182.6,15.2z M186.4,15.2v-0.9h1v0.9H186.4L186.4,15.2z
		 M187.3,15.2v-0.9h1v0.9H187.3L187.3,15.2z M188.2,15.2v-0.9h1v0.9H188.2L188.2,15.2z M193.8,15.2v-0.9h1v0.9H193.8L193.8,15.2z
		 M195.8,15.2v-0.9h1v0.9H195.8L195.8,15.2z M198.5,15.2v-0.9h1v0.9H198.5L198.5,15.2z M178.9,16.1v-0.9h1v0.9H178.9L178.9,16.1z
		 M179.9,16.1v-0.9h1v0.9H179.9L179.9,16.1z M183.6,16.1v-0.9h1v0.9H183.6L183.6,16.1z M184.5,16.1v-0.9h1v0.9H184.5L184.5,16.1z
		 M186.4,16.1v-0.9h1v0.9H186.4L186.4,16.1z M187.3,16.1v-0.9h1v0.9H187.3L187.3,16.1z M188.2,16.1v-0.9h1v0.9H188.2L188.2,16.1z
		 M189.2,16.1v-0.9h1v0.9H189.2L189.2,16.1z M190.1,16.1v-0.9h1v0.9H190.1L190.1,16.1z M191.1,16.1v-0.9h1v0.9H191.1L191.1,16.1z
		 M192.9,16.1v-0.9h1v0.9H192.9L192.9,16.1z M194.8,16.1v-0.9h1v0.9H194.8L194.8,16.1z M195.8,16.1v-0.9h1v0.9H195.8L195.8,16.1z
		 M196.7,16.1v-0.9h1v0.9H196.7L196.7,16.1z M178.9,17.1v-0.9h1v0.9H178.9L178.9,17.1z M179.9,17.1v-0.9h1v0.9H179.9L179.9,17.1z
		 M181.8,17.1v-0.9h1v0.9H181.8L181.8,17.1z M182.6,17.1v-0.9h1v0.9H182.6L182.6,17.1z M183.6,17.1v-0.9h1v0.9H183.6L183.6,17.1z
		 M184.5,17.1v-0.9h1v0.9H184.5L184.5,17.1z M187.3,17.1v-0.9h1v0.9H187.3L187.3,17.1z M189.2,17.1v-0.9h1v0.9H189.2L189.2,17.1z
		 M191.1,17.1v-0.9h1v0.9H191.1L191.1,17.1z M192.9,17.1v-0.9h1v0.9H192.9L192.9,17.1z M193.8,17.1v-0.9h1v0.9H193.8L193.8,17.1z
		 M194.8,17.1v-0.9h1v0.9H194.8L194.8,17.1z M195.8,17.1v-0.9h1v0.9H195.8L195.8,17.1z M196.7,17.1v-0.9h1v0.9H196.7L196.7,17.1z
		 M197.6,17.1v-0.9h1v0.9H197.6L197.6,17.1z M198.5,17.1v-0.9h1v0.9H198.5L198.5,17.1z M178.9,18v-0.9h1V18H178.9L178.9,18z
		 M179.9,18v-0.9h1V18H179.9L179.9,18z M181.8,18v-0.9h1V18H181.8L181.8,18z M185.5,18v-0.9h1V18H185.5L185.5,18z M187.3,18v-0.9h1
		V18H187.3L187.3,18z M188.2,18v-0.9h1V18H188.2L188.2,18z M190.1,18v-0.9h1V18H190.1L190.1,18z M192,18v-0.9h1V18H192L192,18z
		 M193.8,18v-0.9h1V18H193.8L193.8,18z M196.7,18v-0.9h1V18H196.7L196.7,18z M178.9,19v-0.9h1V19H178.9L178.9,19z M180.8,19v-0.9h1
		V19H180.8L180.8,19z M183.6,19v-0.9h1V19H183.6L183.6,19z M187.3,19v-0.9h1V19H187.3L187.3,19z M188.2,19v-0.9h1V19H188.2L188.2,19
		z M189.2,19v-0.9h1V19H189.2L189.2,19z M190.1,19v-0.9h1V19H190.1L190.1,19z M192,19v-0.9h1V19H192L192,19z M192.9,19v-0.9h1V19
		H192.9L192.9,19z M194.8,19v-0.9h1V19H194.8L194.8,19z M196.7,19v-0.9h1V19H196.7L196.7,19z M197.6,19v-0.9h1V19H197.6L197.6,19z
		 M198.5,19v-0.9h1V19H198.5L198.5,19z M178.9,19.9V19h1v0.9H178.9L178.9,19.9z M183.6,19.9V19h1v0.9H183.6L183.6,19.9z M185.5,19.9
		V19h1v0.9H185.5L185.5,19.9z M187.3,19.9V19h1v0.9H187.3L187.3,19.9z M188.2,19.9V19h1v0.9H188.2L188.2,19.9z M189.2,19.9V19h1v0.9
		H189.2L189.2,19.9z M191.1,19.9V19h1v0.9H191.1L191.1,19.9z M192,19.9V19h1v0.9H192L192,19.9z M192.9,19.9V19h1v0.9H192.9
		L192.9,19.9z M195.8,19.9V19h1v0.9H195.8L195.8,19.9z M178.9,20.8v-0.9h1v0.9H178.9L178.9,20.8z M179.9,20.8v-0.9h1v0.9H179.9
		L179.9,20.8z M181.8,20.8v-0.9h1v0.9H181.8L181.8,20.8z M183.6,20.8v-0.9h1v0.9H183.6L183.6,20.8z M186.4,20.8v-0.9h1v0.9H186.4
		L186.4,20.8z M187.3,20.8v-0.9h1v0.9H187.3L187.3,20.8z M188.2,20.8v-0.9h1v0.9H188.2L188.2,20.8z M190.1,20.8v-0.9h1v0.9H190.1
		L190.1,20.8z M192,20.8v-0.9h1v0.9H192L192,20.8z M192.9,20.8v-0.9h1v0.9H192.9L192.9,20.8z M195.8,20.8v-0.9h1v0.9H195.8
		L195.8,20.8z M197.6,20.8v-0.9h1v0.9H197.6L197.6,20.8z M198.5,20.8v-0.9h1v0.9H198.5L198.5,20.8z M178.9,21.7v-0.9h1v0.9H178.9
		L178.9,21.7z M179.9,21.7v-0.9h1v0.9H179.9L179.9,21.7z M180.8,21.7v-0.9h1v0.9H180.8L180.8,21.7z M181.8,21.7v-0.9h1v0.9H181.8
		L181.8,21.7z M183.6,21.7v-0.9h1v0.9H183.6L183.6,21.7z M184.5,21.7v-0.9h1v0.9H184.5L184.5,21.7z M185.5,21.7v-0.9h1v0.9H185.5
		L185.5,21.7z M187.3,21.7v-0.9h1v0.9H187.3L187.3,21.7z M189.2,21.7v-0.9h1v0.9H189.2L189.2,21.7z M194.8,21.7v-0.9h1v0.9H194.8
		L194.8,21.7z M178.9,22.7v-0.9h1v0.9H178.9L178.9,22.7z M179.9,22.7v-0.9h1v0.9H179.9L179.9,22.7z M181.8,22.7v-0.9h1v0.9H181.8
		L181.8,22.7z M182.6,22.7v-0.9h1v0.9H182.6L182.6,22.7z M183.6,22.7v-0.9h1v0.9H183.6L183.6,22.7z M184.5,22.7v-0.9h1v0.9H184.5
		L184.5,22.7z M189.2,22.7v-0.9h1v0.9H189.2L189.2,22.7z M190.1,22.7v-0.9h1v0.9H190.1L190.1,22.7z M191.1,22.7v-0.9h1v0.9H191.1
		L191.1,22.7z M192,22.7v-0.9h1v0.9H192L192,22.7z M192.9,22.7v-0.9h1v0.9H192.9L192.9,22.7z M194.8,22.7v-0.9h1v0.9H194.8
		L194.8,22.7z M195.8,22.7v-0.9h1v0.9H195.8L195.8,22.7z M196.7,22.7v-0.9h1v0.9H196.7L196.7,22.7z M198.5,22.7v-0.9h1v0.9H198.5
		L198.5,22.7z M178.9,23.6v-0.9h1v0.9H178.9L178.9,23.6z M180.8,23.6v-0.9h1v0.9H180.8L180.8,23.6z M182.6,23.6v-0.9h1v0.9H182.6
		L182.6,23.6z M184.5,23.6v-0.9h1v0.9H184.5L184.5,23.6z M187.3,23.6v-0.9h1v0.9H187.3L187.3,23.6z M189.2,23.6v-0.9h1v0.9H189.2
		L189.2,23.6z M190.1,23.6v-0.9h1v0.9H190.1L190.1,23.6z M192.9,23.6v-0.9h1v0.9H192.9L192.9,23.6z M193.8,23.6v-0.9h1v0.9H193.8
		L193.8,23.6z M194.8,23.6v-0.9h1v0.9H194.8L194.8,23.6z M196.7,23.6v-0.9h1v0.9H196.7L196.7,23.6z M178.9,24.6v-0.9h1v0.9H178.9
		L178.9,24.6z M181.8,24.6v-0.9h1v0.9H181.8L181.8,24.6z M185.5,24.6v-0.9h1v0.9H185.5L185.5,24.6z M186.4,24.6v-0.9h1v0.9H186.4
		L186.4,24.6z M188.2,24.6v-0.9h1v0.9H188.2L188.2,24.6z M189.2,24.6v-0.9h1v0.9H189.2L189.2,24.6z M190.1,24.6v-0.9h1v0.9H190.1
		L190.1,24.6z M193.8,24.6v-0.9h1v0.9H193.8L193.8,24.6z M197.6,24.6v-0.9h1v0.9H197.6L197.6,24.6z M198.5,24.6v-0.9h1v0.9H198.5
		L198.5,24.6z M178.9,25.4v-0.9h1v0.9H178.9L178.9,25.4z M179.9,25.4v-0.9h1v0.9H179.9L179.9,25.4z M185.5,25.4v-0.9h1v0.9H185.5
		L185.5,25.4z M186.4,25.4v-0.9h1v0.9H186.4L186.4,25.4z M188.2,25.4v-0.9h1v0.9H188.2L188.2,25.4z M189.2,25.4v-0.9h1v0.9H189.2
		L189.2,25.4z M190.1,25.4v-0.9h1v0.9H190.1L190.1,25.4z M191.1,25.4v-0.9h1v0.9H191.1L191.1,25.4z M192,25.4v-0.9h1v0.9H192
		L192,25.4z M194.8,25.4v-0.9h1v0.9H194.8L194.8,25.4z M197.6,25.4v-0.9h1v0.9H197.6L197.6,25.4z M178.9,26.4v-0.9h1v0.9H178.9
		L178.9,26.4z M179.9,26.4v-0.9h1v0.9H179.9L179.9,26.4z M180.8,26.4v-0.9h1v0.9H180.8L180.8,26.4z M183.6,26.4v-0.9h1v0.9H183.6
		L183.6,26.4z M184.5,26.4v-0.9h1v0.9H184.5L184.5,26.4z M185.5,26.4v-0.9h1v0.9H185.5L185.5,26.4z M187.3,26.4v-0.9h1v0.9H187.3
		L187.3,26.4z M189.2,26.4v-0.9h1v0.9H189.2L189.2,26.4z M191.1,26.4v-0.9h1v0.9H191.1L191.1,26.4z M192.9,26.4v-0.9h1v0.9H192.9
		L192.9,26.4z M193.8,26.4v-0.9h1v0.9H193.8L193.8,26.4z M194.8,26.4v-0.9h1v0.9H194.8L194.8,26.4z M196.7,26.4v-0.9h1v0.9H196.7
		L196.7,26.4z M198.5,26.4v-0.9h1v0.9H198.5L198.5,26.4z M178.9,27.3v-0.9h1v0.9H178.9L178.9,27.3z M179.9,27.3v-0.9h1v0.9H179.9
		L179.9,27.3z M180.8,27.3v-0.9h1v0.9H180.8L180.8,27.3z M181.8,27.3v-0.9h1v0.9H181.8L181.8,27.3z M182.6,27.3v-0.9h1v0.9H182.6
		L182.6,27.3z M183.6,27.3v-0.9h1v0.9H183.6L183.6,27.3z M184.5,27.3v-0.9h1v0.9H184.5L184.5,27.3z M185.5,27.3v-0.9h1v0.9H185.5
		L185.5,27.3z M190.1,27.3v-0.9h1v0.9H190.1L190.1,27.3z M196.7,27.3v-0.9h1v0.9H196.7L196.7,27.3z M197.6,27.3v-0.9h1v0.9H197.6
		L197.6,27.3z M178.9,28.3v-0.9h1v0.9H178.9L178.9,28.3z M179.9,28.3v-0.9h1v0.9H179.9L179.9,28.3z M180.8,28.3v-0.9h1v0.9H180.8
		L180.8,28.3z M182.6,28.3v-0.9h1v0.9H182.6L182.6,28.3z M184.5,28.3v-0.9h1v0.9H184.5L184.5,28.3z M185.5,28.3v-0.9h1v0.9H185.5
		L185.5,28.3z M187.3,28.3v-0.9h1v0.9H187.3L187.3,28.3z M188.2,28.3v-0.9h1v0.9H188.2L188.2,28.3z M189.2,28.3v-0.9h1v0.9H189.2
		L189.2,28.3z M193.8,28.3v-0.9h1v0.9H193.8L193.8,28.3z M197.6,28.3v-0.9h1v0.9H197.6L197.6,28.3z M198.5,28.3v-0.9h1v0.9H198.5
		L198.5,28.3z M178.9,29.2v-0.9h1v0.9H178.9L178.9,29.2z M179.9,29.2v-0.9h1v0.9H179.9L179.9,29.2z M181.8,29.2v-0.9h1v0.9H181.8
		L181.8,29.2z M183.6,29.2v-0.9h1v0.9H183.6L183.6,29.2z M184.5,29.2v-0.9h1v0.9H184.5L184.5,29.2z M187.3,29.2v-0.9h1v0.9H187.3
		L187.3,29.2z M188.2,29.2v-0.9h1v0.9H188.2L188.2,29.2z M192.9,29.2v-0.9h1v0.9H192.9L192.9,29.2z M195.8,29.2v-0.9h1v0.9H195.8
		L195.8,29.2z M178.9,30.1v-0.9h1v0.9H178.9L178.9,30.1z M179.9,30.1v-0.9h1v0.9H179.9L179.9,30.1z M180.8,30.1v-0.9h1v0.9H180.8
		L180.8,30.1z M181.8,30.1v-0.9h1v0.9H181.8L181.8,30.1z M182.6,30.1v-0.9h1v0.9H182.6L182.6,30.1z M183.6,30.1v-0.9h1v0.9H183.6
		L183.6,30.1z M184.5,30.1v-0.9h1v0.9H184.5L184.5,30.1z M185.5,30.1v-0.9h1v0.9H185.5L185.5,30.1z M186.4,30.1v-0.9h1v0.9H186.4
		L186.4,30.1z M187.3,30.1v-0.9h1v0.9H187.3L187.3,30.1z M188.2,30.1v-0.9h1v0.9H188.2L188.2,30.1z M189.2,30.1v-0.9h1v0.9H189.2
		L189.2,30.1z M190.1,30.1v-0.9h1v0.9H190.1L190.1,30.1z M191.1,30.1v-0.9h1v0.9H191.1L191.1,30.1z M192,30.1v-0.9h1v0.9H192
		L192,30.1z M192.9,30.1v-0.9h1v0.9H192.9L192.9,30.1z M193.8,30.1v-0.9h1v0.9H193.8L193.8,30.1z M194.8,30.1v-0.9h1v0.9H194.8
		L194.8,30.1z M195.8,30.1v-0.9h1v0.9H195.8L195.8,30.1z M196.7,30.1v-0.9h1v0.9H196.7L196.7,30.1z M197.6,30.1v-0.9h1v0.9H197.6
		L197.6,30.1z M198.5,30.1v-0.9h1v0.9H198.5L198.5,30.1z"/>
</g>
<g>
	<g>
		<path class="st1" d="M45.7,77.7c0-2.4,1.3-2.9,3.6-2.9h2.9c3.5,0,4.1,0.8,4,3.1h-2.5v-0.3c0-0.6-0.4-0.8-1.2-0.8h-2.8
			c-1.3,0-1.6,0.6-1.6,1.7v0.9c0,1.2,0.3,1.6,1.4,1.6h2.7c1.2,0,1.5-0.1,1.5-1.2h2.5v0.8c0,1.4-0.5,2.5-3,2.5h-4.1
			c-2.3,0-3.6-0.5-3.6-2.9L45.7,77.7L45.7,77.7z"/>
	</g>
	<g>
		<rect x="69" y="74.9" class="st1" width="2.5" height="8.2"/>
	</g>
	<g>
		<path class="st1" d="M84.2,74.9h7.6c2,0,2.5,1,2.5,2.4v0.5c0,1.1-0.3,1.8-1.4,2l0,0c0.7,0.2,1.3,0.4,1.3,1.8V83h-2.5v-1
			c0-0.9-0.3-1.2-1.1-1.2h-4V83h-2.5V74.9z M86.7,78.9h4.2c0.7,0,0.9-0.3,0.9-0.9v-0.3c0-0.7-0.4-0.9-1.2-0.9h-3.9
			C86.7,76.8,86.7,78.9,86.7,78.9z"/>
	</g>
	<g>
		<path class="st1" d="M106.6,77.7c0-2.4,1.3-2.9,3.6-2.9h2.9c3.5,0,4.1,0.8,4,3.1h-2.5v-0.3c0-0.6-0.4-0.8-1.2-0.8h-2.8
			c-1.3,0-1.6,0.6-1.6,1.7v0.9c0,1.2,0.3,1.6,1.4,1.6h2.7c1.2,0,1.5-0.1,1.5-1.2h2.5v0.8c0,1.4-0.5,2.5-3,2.5h-4.1
			c-2.3,0-3.6-0.5-3.6-2.9L106.6,77.7L106.6,77.7z"/>
	</g>
	<g>
		<path class="st1" d="M129.8,74.9h2.5v4.7c0,1.1,0.4,1.4,1.4,1.4h2.5c1.1,0,1.4-0.4,1.4-1.4v-4.7h2.5v5.2c0,2-1.1,3-3.4,3H133
			c-2.3,0-3.4-1-3.4-3L129.8,74.9L129.8,74.9z"/>
	</g>
	<g>
		<rect x="152.7" y="74.9" class="st1" width="2.5" height="8.2"/>
	</g>
	<g>
		<polygon class="st1" points="167.4,74.9 177,74.9 177,76.9 173.4,76.9 173.4,83 170.9,83 170.9,76.9 167.4,76.9 		"/>
	</g>
	<g>
		<path class="st1" d="M188.8,80.4h2.5c0,0.9,0.4,1,1.1,1h3.1c0.5,0,1.1-0.1,1.1-0.7c0-0.7-0.3-0.8-3.5-0.8c-3.8,0-4.3-0.4-4.3-2.5
			c0-1.5,0.2-2.7,3.3-2.7h3.5c2.9,0,3.2,1,3.2,2.4v0.3h-2.5c0-0.6-0.1-0.9-1.2-0.9h-2.8c-0.5,0-1,0.2-1,0.6c0,0.7,0.3,0.7,3,0.7
			c3.9,0,4.8,0.3,4.8,2.6c0,2.2-0.7,2.6-4.1,2.6h-3c-2.3,0-3.2-0.4-3.2-2.2L188.8,80.4L188.8,80.4z"/>
	</g>
	<g>
		<path class="st2" d="M37.8,66.8h26.9l1.8,3.8h16.2L58.9,8.9H43.4L16,82.9h16.2L37.8,66.8z M42.3,53.1l8.9-24.7l8.7,24.7H42.3z"/>
	</g>
	<g>
		<polygon class="st2" points="91.1,9.5 106.3,9.5 106.3,60.9 140.8,60.9 140.8,70.6 91.2,70.6 		"/>
	</g>
	<g>
		<polygon class="st2" points="149.5,9.5 164.6,9.5 164.6,60.9 199.1,60.9 199.1,70.6 149.5,70.6 		"/>
	</g>
</g>
</svg>
