<?xml version="1.0" encoding="utf-8"?>
<!-- Generator: Adobe Illustrator 24.1.3, SVG Export Plug-In . SVG Version: 6.00 Build 0)  -->
<svg version="1.1" id="Calque_1" xmlns="http://www.w3.org/2000/svg" xmlns:xlink="http://www.w3.org/1999/xlink" x="0px" y="0px"
	 viewBox="0 0 207 181.1" style="enable-background:new 0 0 207 181.1;" xml:space="preserve">
<style type="text/css">
	.st0{fill:#6C7071;}
	.st1{fill-rule:evenodd;clip-rule:evenodd;fill:#6C7071;}
</style>
<g id="Calque_2_1_">
	<g id="Picto_Excellence">
		<path class="st0" d="M162.1,4.5c4.6,4.2,5.5,10.9,5.5,10.9s-6.7-0.2-11.3-4.4s-5.5-10.8-5.5-10.8S157.4,0.3,162.1,4.5z"/>
		<path class="st0" d="M129.5,160.2c-2.5,3.2-3.9,7.1-4.2,11.2c0,0.1,8.4-2.3,12.1-7.9c2.2-3.3,2.9-7.4,2-11.3
			C135.7,154.2,132.3,156.9,129.5,160.2z"/>
		<path class="st0" d="M135.4,177.9c-4.2-0.6-7.9-3.1-10.1-6.8c0.1,0,8-2.2,14.8-1.4c4.1,0.5,7.9,2.3,10.9,5.1
			C151,174.9,142.8,179.2,135.4,177.9z"/>
		<path class="st0" d="M144.1,153.8c-1.7,3.6-2.3,7.6-1.7,11.5c0,0.1,7.4-3.6,9.9-9.7c1.4-3.6,1.3-7.7-0.3-11.3
			C148.7,147,146,150.2,144.1,153.8z"/>
		<path class="st0" d="M153,170c-4.1,0.1-8.1-1.7-10.8-4.9c0.1,0,7-3.5,13.6-3.9c4-0.2,8,0.9,11.3,3.1
			C167.3,164.4,160.3,169.9,153,170z"/>
		<path class="st0" d="M156.6,145.2c-0.9,3.8-0.7,7.7,0.6,11.4c0,0.1,6.3-4.7,7.6-11c0.7-3.8-0.2-7.7-2.4-10.9
			C159.8,137.8,157.8,141.3,156.6,145.2z"/>
		<path class="st0" d="M168.2,159.2c-4,0.8-8.1-0.3-11.2-2.9c0.1,0,6-4.6,12.2-6.1c3.8-0.9,7.9-0.5,11.5,1.1
			C180.9,151.4,175.1,158,168.2,159.2z"/>
		<path class="st0" d="M167.1,134.6c-0.2,3.8,0.7,7.7,2.6,11c0,0.1,5.2-5.6,5.3-12c0-3.8-1.5-7.5-4.2-10.2
			C168.8,126.9,167.6,130.7,167.1,134.6z"/>
		<path class="st0" d="M180.9,146.3c-3.7,1.4-7.9,1.1-11.3-0.8c0.1,0,4.9-5.5,10.8-8c3.6-1.5,7.6-1.9,11.4-0.9
			C191.8,136.5,187.3,143.9,180.9,146.3z"/>
		<path class="st0" d="M175.4,122.6c0.5,3.8,2,7.3,4.5,10.2c0,0.1,4.1-6.4,3.1-12.6c-0.7-3.7-2.8-7-5.9-9.2
			C175.7,114.6,175.2,118.6,175.4,122.6z"/>
		<path class="st0" d="M190.9,131.5c-3.4,2-7.5,2.4-11.2,1.2c0.1,0,3.8-6.2,9.1-9.7c3.3-2.1,7.1-3.2,11-2.9
			C199.8,120,196.8,128,190.9,131.5z"/>
		<path class="st0" d="M181.5,109.3c1.1,3.6,3.2,6.8,6.1,9.2c0,0.1,2.9-7,0.9-12.9c-1.2-3.5-3.9-6.4-7.3-8
			C180.5,101.5,180.6,105.5,181.5,109.3z"/>
		<path class="st0" d="M198.1,115.3c-3,2.6-6.9,3.7-10.8,3.1c0.1,0,2.7-6.7,7.3-11.1c2.8-2.7,6.4-4.4,10.2-4.8
			C205,102.4,203.3,110.9,198.1,115.3z"/>
		<path class="st0" d="M185.2,95.2c1.7,3.3,4.3,6.1,7.5,7.9c0,0.1,1.7-7.4-1.3-12.8c-1.8-3.2-4.9-5.6-8.4-6.6
			C183,83.8,182.7,90,185.2,95.2z"/>
		<path class="st0" d="M202.5,98.1c-2.4,3-6.1,4.9-10,5c0,0,1.5-7,5.3-12.2c2.3-3.1,5.5-5.4,9.2-6.6
			C207.1,84.3,206.8,92.8,202.5,98.1z"/>
		<path class="st0" d="M186.5,80.7c2.2,3,5.2,5.2,8.7,6.5c0,0,0.4-7.6-3.4-12.5c-2.3-2.9-5.7-4.7-9.4-5
			C182.4,69.8,183.2,75.9,186.5,80.7z"/>
		<path class="st0" d="M203.9,80.4c-1.9,3.4-5.2,5.9-9,6.7c0,0,0.3-7.2,3.1-13c1.7-3.5,4.5-6.3,8-8.1
			C206,65.9,207.3,74.5,203.9,80.4z"/>
		<path class="st0" d="M185.3,66c2.6,2.6,6,4.3,9.6,4.8c0.1,0-0.9-7.6-5.5-11.8c-2.8-2.5-6.4-3.6-10.1-3.3
			C179.3,55.9,181.2,61.9,185.3,66z"/>
		<path class="st0" d="M202.3,62.6c-1.2,3.7-4,6.7-7.6,8.3c0-0.1-0.9-7.2,0.8-13.5c1-3.8,3.2-7.1,6.2-9.6
			C201.7,47.8,204.5,56.1,202.3,62.6z"/>
		<path class="st0" d="M181.4,51.7c3,2.1,6.6,3.2,10.3,3.1c0.1,0-2.2-7.4-7.6-10.8c-3.1-2-7-2.5-10.5-1.5
			C173.7,42.5,176.7,48.3,181.4,51.7z"/>
		<path class="st0" d="M197.5,45.2c-0.5,3.9-2.6,7.4-5.9,9.6c0,0-2.2-7-1.7-13.6c0.3-3.9,1.8-7.7,4.3-10.7
			C194.1,30.5,198.5,38.3,197.5,45.2z"/>
		<path class="st0" d="M174.9,37.9c3.3,1.6,7.1,2,10.7,1.3c0.1,0-3.6-7-9.6-9.5c-3.5-1.4-7.4-1.3-10.7,0.3
			C165.4,30.1,169.6,35.3,174.9,37.9z"/>
		<path class="st0" d="M189.4,28.6c0.3,4-1.1,7.9-3.9,10.7c0-0.1-3.5-6.7-4.4-13.4c-0.6-4,0.1-8,2-11.5
			C183,14.4,189,21.5,189.4,28.6z"/>
		<path class="st0" d="M165.6,25.2c3.6,1,7.4,0.8,10.9-0.5c0.1,0-5.1-6.4-11.6-8c-3.7-0.9-7.6-0.1-10.6,2.1
			C154.4,18.8,159.8,23.5,165.6,25.2z"/>
		<path class="st0" d="M178,13.3c1.2,3.9,0.6,8.1-1.6,11.5c0-0.1-4.9-6.1-7.3-12.8c-1.5-3.8-1.7-8.1-0.7-12.1
			C168.4-0.1,176,6.2,178,13.3z"/>
		<path class="st0" d="M101.8,173.2l0.1-1.3c10.7,1,21.5-0.2,31.8-3.6c10.1-3.3,19.6-8.4,27.8-15.2c17.4-14.3,28.6-34.8,31.4-57.1
			c2.4-18.5,1.2-35-3.7-49c-4.9-14.5-14.7-26.9-27.7-35l0.7-1.1c13.3,8.2,23.3,20.8,28.2,35.6c4.9,14.2,6.2,30.9,3.8,49.7
			c-2.8,22.7-14.3,43.4-31.9,57.9c-8.3,6.9-17.9,12.1-28.2,15.4C123.6,173,112.6,174.2,101.8,173.2z"/>
		<path class="st0" d="M44.9,4.5c-4.6,4.2-5.5,10.9-5.5,10.9s6.7-0.2,11.3-4.4s5.5-10.8,5.5-10.8S49.6,0.3,44.9,4.5z"/>
		<path class="st0" d="M77.5,160.2c2.5,3.2,3.9,7.1,4.2,11.2c0,0.1-8.4-2.3-12.1-7.9c-2.2-3.3-2.9-7.4-2-11.3
			C71.3,154.2,74.7,156.9,77.5,160.2z"/>
		<path class="st0" d="M71.6,177.9c4.2-0.6,7.9-3.1,10.1-6.8c-0.1,0-8-2.2-14.8-1.4c-4.1,0.5-7.9,2.3-10.9,5.1
			C56,174.9,64.2,179.2,71.6,177.9z"/>
		<path class="st0" d="M63,153.8c1.7,3.6,2.3,7.6,1.7,11.5c0,0.1-7.4-3.6-9.8-9.7c-1.4-3.6-1.3-7.7,0.3-11.3
			C58.4,147,61,150.2,63,153.8z"/>
		<path class="st0" d="M54,170c4.1,0.1,8.1-1.7,10.8-4.9c-0.1,0-7-3.5-13.6-3.9c-4-0.2-8,0.9-11.3,3.1C39.7,164.4,46.7,169.9,54,170
			z"/>
		<path class="st0" d="M50.4,145.2c0.9,3.8,0.7,7.7-0.6,11.4c0,0.1-6.3-4.7-7.6-11c-0.7-3.8,0.2-7.7,2.4-10.9
			C47.2,137.8,49.2,141.3,50.4,145.2z"/>
		<path class="st0" d="M38.8,159.2c4,0.8,8.1-0.3,11.2-2.9c-0.1,0-6-4.6-12.2-6.1c-3.8-0.9-7.9-0.5-11.5,1.1
			C26.1,151.4,31.9,158,38.8,159.2z"/>
		<path class="st0" d="M39.9,134.6c0.2,3.8-0.7,7.7-2.6,11c0,0.1-5.2-5.6-5.3-12c0-3.8,1.5-7.5,4.2-10.2
			C38.2,126.9,39.4,130.7,39.9,134.6z"/>
		<path class="st0" d="M26.1,146.3c3.7,1.4,7.9,1.1,11.3-0.8c-0.1,0-4.9-5.5-10.8-8c-3.6-1.5-7.6-1.9-11.4-0.9
			C15.2,136.5,19.7,143.9,26.1,146.3z"/>
		<path class="st0" d="M31.6,122.6c-0.5,3.8-2,7.3-4.5,10.2c0,0.1-4.1-6.4-3.1-12.6c0.7-3.7,2.8-7,5.9-9.2
			C31.3,114.6,31.8,118.6,31.6,122.6z"/>
		<path class="st0" d="M16.1,131.5c3.4,2,7.5,2.4,11.2,1.2c-0.1,0-3.8-6.2-9.1-9.7c-3.3-2.1-7.1-3.2-11-2.9
			C7.2,120,10.2,128,16.1,131.5z"/>
		<path class="st0" d="M25.5,109.3c-1.1,3.6-3.2,6.8-6.1,9.2c0,0.1-2.9-7-0.9-12.9c1.2-3.5,3.9-6.4,7.3-8
			C26.5,101.5,26.4,105.5,25.5,109.3z"/>
		<path class="st0" d="M8.9,115.3c3,2.6,6.9,3.7,10.7,3.1c0,0-2.7-6.7-7.3-11.1c-2.8-2.7-6.4-4.4-10.2-4.8
			C2,102.4,3.7,110.9,8.9,115.3z"/>
		<path class="st0" d="M21.8,95.2c-1.7,3.3-4.3,6.1-7.5,7.9c0,0.1-1.7-7.4,1.3-12.8c1.8-3.2,4.9-5.6,8.5-6.6
			C24,83.8,24.3,90,21.8,95.2z"/>
		<path class="st0" d="M4.5,98.1c2.4,3,6.1,4.9,10,5c0,0-1.5-7.1-5.3-12.2c-2.3-3.1-5.5-5.4-9.2-6.6C0,84.3,0.2,92.8,4.5,98.1z"/>
		<path class="st0" d="M20.5,80.7c-2.2,3-5.2,5.2-8.7,6.5c-0.1,0-0.4-7.6,3.4-12.5c2.3-2.9,5.7-4.7,9.4-5
			C24.6,69.8,23.8,75.9,20.5,80.7z"/>
		<path class="st0" d="M3.1,80.4c1.9,3.4,5.2,5.9,9,6.7c0,0-0.3-7.2-3.1-13c-1.7-3.5-4.5-6.3-8-8.1C1,65.9-0.3,74.5,3.1,80.4z"/>
		<path class="st0" d="M21.7,66c-2.6,2.6-6,4.3-9.6,4.8c-0.1,0,0.9-7.6,5.5-11.8c2.8-2.5,6.4-3.6,10.1-3.3
			C27.7,55.9,25.8,61.9,21.7,66z"/>
		<path class="st0" d="M4.7,62.6c1.2,3.7,4,6.7,7.6,8.3c0-0.1,0.9-7.2-0.8-13.5c-1-3.8-3.2-7.1-6.2-9.6C5.3,47.8,2.5,56.1,4.7,62.6z
			"/>
		<path class="st0" d="M25.5,51.7c-3,2.1-6.6,3.2-10.3,3.1c-0.1,0,2.2-7.4,7.6-10.8c3.1-2,7-2.5,10.5-1.5
			C33.3,42.5,30.3,48.3,25.5,51.7z"/>
		<path class="st0" d="M9.5,45.2c0.5,3.9,2.6,7.4,5.9,9.6c0,0,2.2-7,1.7-13.6c-0.3-3.9-1.8-7.7-4.3-10.7
			C12.9,30.5,8.5,38.3,9.5,45.2z"/>
		<path class="st0" d="M32.1,37.9c-3.3,1.6-7.1,2-10.7,1.3c-0.1,0,3.6-7,9.6-9.5c3.5-1.4,7.4-1.3,10.7,0.3
			C41.6,30.1,37.4,35.3,32.1,37.9z"/>
		<path class="st0" d="M17.6,28.6c-0.3,4,1.1,7.9,3.9,10.7c0-0.1,3.5-6.7,4.4-13.4c0.6-4-0.1-8-2-11.5C24,14.4,18,21.5,17.6,28.6z"
			/>
		<path class="st0" d="M41.4,25.2c-3.6,1-7.4,0.8-10.9-0.5c-0.1,0,5.1-6.4,11.6-8c3.7-0.9,7.6-0.1,10.6,2.1
			C52.6,18.8,47.2,23.5,41.4,25.2z"/>
		<path class="st0" d="M29,13.3c-1.2,3.9-0.6,8.1,1.6,11.5c0-0.1,4.9-6.1,7.3-12.8c1.5-3.8,1.7-8,0.7-12C38.6-0.1,31,6.2,29,13.3z"
			/>
		<path class="st0" d="M105.2,173.2l-0.1-1.3c-10.7,1-21.5-0.2-31.8-3.6c-10.1-3.3-19.6-8.4-27.8-15.2c-17.3-14.2-28.5-34.7-31.3-57
			c-2.4-18.5-1.2-35,3.7-49c4.9-14.5,14.7-26.9,27.7-35L44.9,11c-13.3,8.2-23.3,20.8-28.2,35.6c-4.9,14.2-6.2,30.9-3.8,49.7
			c2.8,22.7,14.3,43.4,31.9,57.9c8.3,6.9,17.9,12.1,28.2,15.4C83.4,173,94.4,174.2,105.2,173.2z"/>
		<polygon class="st0" points="103.1,166.6 93.3,173.9 103.1,181.1 112.9,173.9 		"/>
		<path class="st1" d="M96.2,18.3c4.6,0,9.3,0.1,14,0c3.6-0.2,7.1,1.2,9.6,3.8c6.7,6.3,13.3,12.6,20,18.8c1,0.9,2.2,1.5,3.6,1.8
			c6.1,1.7,12.1,3.2,18.2,4.7c1.1,0.2,2.1,0.8,2.9,1.6c0.9,0.9,1.5,2,1.7,3.3c0.1,4.3,0.1,8.6,0.1,12.9c0,2.8-2.1,4.2-3.7,6.1
			c-1.2,1.3-2.2,2.7-3.2,4.2c-2.9,5.3-7.2,8.3-13.2,8.4c-5.7,0.2-11-3.1-13.4-8.3c-0.5-1.2-1.7-2-3-1.8H86.6
			c-1.2-0.1-2.3,0.6-2.8,1.7c-2.4,5.2-7.7,8.5-13.4,8.3c-6,0-10.5-3-13.3-8.3c-0.5-1.2-1.7-2-3-1.8c-3.8,0-8.8-5-8.8-8.8V48.6
			c0-2.8,1.2-5,3.7-6c3.3-1.3,6.8-2.2,10.3-3.4c1-0.4,1.9-1,2.6-1.8c4.2-5.6,8.3-11.3,12.7-16.9c1.1-1.3,2.7-2.1,4.4-2.2
			c5.8-0.3,11.7-0.1,17.5-0.1L96.2,18.3z M100.7,43.5c0.7,0,1,0.1,1.6,0.1h26.1c0.9-0.1,1.8-0.4,2.6-0.8c-0.3-0.8-0.8-1.6-1.3-2.2
			c-4.2-4.1-8.4-8-12.8-12c-1-1-2.3-1.7-3.7-1.8c-4.1-0.3-8.3-0.1-12.5-0.1V43.5z M90.4,26.5c-3.3,0-6.4-0.1-9.6,0.1
			c-1,0.1-1.8,0.6-2.4,1.5c-3,4-6,7.9-9,12.1c-1.4,2.1-0.7,3.4,1.8,3.5h18.2c0.3,0,0.6-0.1,0.9-0.3L90.4,26.5L90.4,26.5z M138.4,69
			c0,4.2,3.4,7.5,7.6,7.5c0,0,0,0,0.1,0c4.2,0,7.6-3.4,7.6-7.6s-3.4-7.6-7.6-7.6c-4.2,0-7.5,3.4-7.6,7.5
			C138.4,68.9,138.4,69,138.4,69L138.4,69z M70.3,61.4c-4.2,0-7.5,3.4-7.6,7.5c0,4.2,3.3,7.6,7.5,7.6c4.1-0.1,7.5-3.4,7.6-7.5
			C77.8,64.8,74.5,61.4,70.3,61.4L70.3,61.4z"/>
		<g>
			<path class="st0" d="M96.5,111.2h14.2c1.9,0,3.4,1.5,3.4,3.4V129c0,1.9-1.5,3.4-3.4,3.4H96.5c-1.9,0-3.4-1.5-3.4-3.4v-14.4
				C93.2,112.7,94.7,111.2,96.5,111.2z"/>
			<path class="st0" d="M137.9,127.6c-0.7,0-1.4,0.4-1.7,1.1h-3.5l-3.3-3.9h-11.5v-1.5h16.5c0.4,0.9,1.5,1.4,2.4,1s1.4-1.5,1-2.4
				s-1.5-1.4-2.4-1c-0.4,0.2-0.8,0.5-1,1h-16.5V120h11.5c0.4,0.9,1.5,1.4,2.4,1s1.4-1.5,1-2.4s-1.5-1.4-2.4-1c-0.4,0.2-0.8,0.5-1,1
				h-11.5v-1.4h10.3l3.8-4.1c0.1,0,0.3,0.1,0.4,0.1c1,0,1.9-0.8,1.9-1.8s-0.8-1.9-1.8-1.9s-1.9,0.8-1.9,1.8l0,0
				c0,0.3,0.1,0.6,0.3,0.9l-3.3,3.6h-9.7v-1.4h4.9l6.3-7.5h2.9c0.5,0.9,1.6,1.2,2.5,0.7s1.2-1.6,0.7-2.5s-1.6-1.2-2.5-0.7
				c-0.4,0.2-0.7,0.6-0.9,1.1h-3.4l-6.3,7.5h-4.2v-0.1c0-2.6-1.9-4.8-4.4-5.3v-3.1l5-4.3v-2.7c0.9-0.4,1.4-1.5,1-2.4s-1.5-1.4-2.4-1
				s-1.4,1.5-1,2.4c0.2,0.4,0.5,0.8,1,1v2l-5,4.3v3.7h-1.3v-7.7l4.1-3.7v-3.3c0.9-0.4,1.4-1.5,1-2.4s-1.5-1.4-2.4-1s-1.4,1.5-1,2.4
				c0.2,0.4,0.5,0.8,1,1v2.7l-4.1,3.6v8.3h-2V96.5l3.9-3.3V89c0.9-0.4,1.4-1.5,1-2.4s-1.5-1.4-2.4-1s-1.4,1.5-1,2.4
				c0.2,0.4,0.5,0.8,1,1v3.5l-3.9,3.3v11.5h-1.5V90.9c0.9-0.4,1.4-1.5,1-2.4s-1.5-1.4-2.4-1s-1.4,1.5-1,2.4c0.2,0.4,0.5,0.8,1,1
				v16.5H101V95.9c0.9-0.4,1.4-1.5,1-2.4s-1.5-1.4-2.4-1s-1.4,1.5-1,2.4c0.2,0.4,0.5,0.8,1,1v11.5h-1.4V97.1L94,93.3
				c0-0.1,0.1-0.3,0.1-0.4c0-1-0.8-1.8-1.8-1.8s-1.8,0.8-1.8,1.8s0.8,1.8,1.8,1.8l0,0c0.3,0,0.6-0.1,0.9-0.3l3.6,3.3v9.7h-1.5v-4.9
				l-7.5-6.3v-2.9c0.6-0.3,0.9-0.9,0.9-1.6c0-1-0.8-1.9-1.8-1.9S85,90.6,85,91.6c0,0.8,0.5,1.6,1.3,1.8v3.4l7.5,6.3v4.3
				c-2.5,0.5-4.4,2.7-4.4,5.3v0.1h-4.5l-6.3-7.5h-3.4c-0.3-1-1.3-1.5-2.3-1.2s-1.5,1.3-1.2,2.3s1.3,1.5,2.3,1.2
				c0.5-0.1,0.8-0.4,1.1-0.9H78l6.3,7.5h5.2v1.4h-9.9l-3.3-3.6c0.5-0.9,0.2-2-0.7-2.5c-0.9-0.5-2-0.2-2.5,0.7
				c-0.2,0.3-0.2,0.6-0.2,0.9c0,1,0.8,1.8,1.8,1.8c0.1,0,0.3,0,0.4,0l3.8,4.2h10.6v1.4H77.6c-0.4-0.9-1.5-1.4-2.4-1s-1.4,1.5-1,2.4
				s1.5,1.4,2.4,1c0.4-0.2,0.8-0.5,1-1h11.8v1.9H72.6c-0.4-0.9-1.5-1.4-2.4-1s-1.4,1.5-1,2.4s1.5,1.4,2.4,1c0.4-0.2,0.8-0.5,1-1
				h16.8v1.5H77.6l-3.3,3.9h-3.5c-0.4-0.9-1.5-1.4-2.4-1c-0.9,0.4-1.4,1.5-1,2.4s1.5,1.4,2.4,1c0.4-0.2,0.8-0.5,1-1H75l3.3-3.9h11.1
				v2h-8.6l-3.7,4.1h-2.7c-0.4-0.9-1.5-1.4-2.4-1s-1.4,1.5-1,2.4s1.5,1.4,2.4,1c0.4-0.2,0.8-0.5,1-1h3.3l3.7-4.1h8v1
				c0,0.1,0,0.2,0,0.3h-4l-4.3,5h-2c-0.4-0.9-1.5-1.4-2.4-1s-1.4,1.5-1,2.4s1.5,1.4,2.4,1c0.4-0.2,0.8-0.5,1-1h2.7l4.3-5h3.6
				c0.6,1.6,1.9,2.9,3.5,3.4v2.9l-5,4.3v2.7c-0.9,0.4-1.4,1.5-1,2.4s1.5,1.4,2.4,1s1.4-1.5,1-2.4c-0.2-0.4-0.5-0.8-1-1v-2l5-4.3
				v-3.3h1.3v7.4l-4.1,3.7v3.3c-0.9,0.4-1.4,1.5-1,2.4s1.5,1.4,2.4,1s1.4-1.5,1-2.4c-0.2-0.4-0.5-0.8-1-1v-2.6l4.1-3.7v-8h2v10.5
				l-3.9,3.3v4.2c-0.9,0.4-1.4,1.5-1,2.4s1.5,1.4,2.4,1s1.4-1.5,1-2.4c-0.2-0.4-0.5-0.8-1-1v-3.5l3.9-3.3v-11.3h1.5v16.2
				c-0.9,0.4-1.4,1.5-1,2.4s1.5,1.4,2.4,1s1.4-1.5,1-2.4c-0.2-0.4-0.5-0.8-1-1v-16.2h1.9V147c-0.9,0.4-1.4,1.5-1,2.4s1.5,1.4,2.4,1
				s1.4-1.5,1-2.4c-0.2-0.4-0.5-0.8-1-1v-11.1h1.4v9.9l4.2,3.8c0,0.1-0.1,0.3-0.1,0.4c0,1,0.8,1.9,1.8,1.9s1.9-0.8,1.9-1.8
				s-0.8-1.9-1.8-1.9l0,0c-0.3,0-0.6,0.1-0.9,0.2l-3.6-3.3v-9.3h1.4v4.6l7.5,6.3v2.9c-0.9,0.5-1.2,1.6-0.7,2.5s1.6,1.2,2.5,0.7
				s1.2-1.6,0.7-2.5c-0.2-0.4-0.6-0.7-1.1-0.9V146l-7.5-6.3v-3.9c2.1-0.2,4-1.6,4.7-3.6h3.3l4.3,5h2.7c0.4,0.9,1.5,1.4,2.4,1
				s1.4-1.5,1-2.4s-1.5-1.4-2.4-1c-0.4,0.2-0.8,0.5-1,1h-2l-4.3-5h-3.7c0-0.1,0-0.2,0-0.3v-1h7.7l3.7,4.1h3.3c0.4,0.9,1.5,1.4,2.4,1
				s1.4-1.5,1-2.4s-1.5-1.4-2.4-1c-0.4,0.2-0.8,0.5-1,1h-2.6l-3.7-4.1h-8.3v-2h10.8l3.3,3.9h4.2c0.4,0.9,1.5,1.4,2.4,1
				s1.4-1.5,1-2.4C139.3,128,138.6,127.6,137.9,127.6L137.9,127.6z M115.6,130.7c0,1.7-1.3,3-3,3.1H94.8c-1.7,0-3.1-1.4-3.1-3.1v-18
				c0-1.7,1.4-3.1,3.1-3.1h17.8c1.7,0,3,1.4,3,3.1L115.6,130.7z"/>
		</g>
	</g>
</g>
</svg>
