<?xml version="1.0" encoding="utf-8"?>
<!-- Generator: Adobe Illustrator 24.1.3, SVG Export Plug-In . SVG Version: 6.00 Build 0)  -->
<svg version="1.1" id="Calque_1" xmlns="http://www.w3.org/2000/svg" xmlns:xlink="http://www.w3.org/1999/xlink" x="0px" y="0px"
	 viewBox="0 0 189.1 198.4" style="enable-background:new 0 0 189.1 198.4;" xml:space="preserve">
<style type="text/css">
	.st0{fill:#6C7071;}
</style>
<g id="Calque_2_1_">
	<g id="Picto_Expert">
		<path class="st0" d="M189.1,83.8c-1.1-1.2-2.4-2.2-3.7-3.2c-0.3-7.4-6.2-13.3-13.8-14.2c0-0.7,0-1.3,0-2c0-11-3.5-28.8-12.1-39.6
			C137.1-3.3,94.3,0.1,94.3,0.1S51.5-3.3,29.1,24.7C20.5,35.6,17,53.3,17,64.3v2C9.4,67.1,3.7,73.5,3.6,81.1v1.3
			c-2.1,0.1-3.7,1.9-3.6,3.9v36.4c-0.1,2.1,1.5,3.9,3.5,4l0,0v1.2c0.1,7.5,5.7,13.7,13.1,14.7v17.9c0,8.3,6.7,15,15,15h50.2
			c0.6,3,3.3,5.2,6.4,5.2h12.6c3.6,0,6.6-2.9,6.6-6.6s-2.9-6.6-6.6-6.6H88.2c-3.1,0-5.8,2.2-6.4,5.2H31.7c-6.8,0-12.3-5.5-12.3-12.3
			v-17.8c8-0.2,14.5-6.7,14.6-14.8V81.1c0-4.8-2.3-9.2-6.2-12c0-0.8,0.1-1.7,0.1-2.5c1.1-18.2,4.6-25.7,9.4-33.5
			c11.4-18.6,41.3-22.6,57-22.8c15.7,0.1,45.5,4.1,57,22.8c4.8,7.8,8.3,15.3,9.4,33.5c0,0.8,0.1,1.5,0.1,2.3
			c-4.2,2.7-6.7,7.2-6.8,12.2V128c0,8.2,7,14.8,15.7,14.8s15.7-6.6,15.7-14.8v-4.6c1.3-0.9,2.6-2,3.7-3.2L189.1,83.8z"/>
		<polygon id="Étoile" class="st0" points="144.6,141 154,159.9 174.8,162.9 159.7,177.6 163.3,198.4 144.6,188.6 126,198.4 
			129.6,177.6 114.5,162.9 135.3,159.9 		"/>
		<path class="st0" d="M135.4,84.6V84h0.6v0.6H135.4z M136.5,84.6V84h0.5v0.6H136.5z M137.6,84.6V84h0.6v0.6H137.6z M138.7,84.6V84
			h0.6v0.6H138.7z M139.8,84.6V84h0.6v0.6H139.8z M140.9,84.6V84h0.6v0.6H140.9z M142,84.6V84h0.6v0.6H142z M143.1,84.6V84h0.6v0.6
			H143.1z M144.2,84.6V84h0.6v0.6H144.2z M145.3,84.6V84h0.6v0.6H145.3z M146.5,84.6V84h0.5v0.6H146.5z M135.4,85.2v-0.6h0.6v0.6
			H135.4z M135.9,85.2v-0.6h0.6v0.6H135.9z M137.6,85.2v-0.6h0.6v0.6H137.6z M138.7,85.2v-0.6h0.6v0.6H138.7z M139.3,85.2v-0.6h0.6
			v0.6H139.3z M140.4,85.2v-0.6h0.6v0.6H140.4z M141.5,85.2v-0.6h0.5v0.6H141.5z M142,85.2v-0.6h0.6v0.6H142z M142.6,85.2v-0.6h0.6
			v0.6H142.6z M143.7,85.2v-0.6h0.6v0.6H143.7z M145.3,85.2v-0.6h0.6v0.6H145.3z M145.9,85.2v-0.6h0.6v0.6H145.9z M147,85.2v-0.6
			h0.6v0.6H147z M135.4,85.7v-0.6h0.6v0.6H135.4z M137,85.7v-0.6h0.6v0.6H137z M138.1,85.7v-0.6h0.6v0.6H138.1z M138.7,85.7v-0.6
			h0.6v0.6H138.7z M139.8,85.7v-0.6h0.6v0.6H139.8z M142.6,85.7v-0.6h0.6v0.6H142.6z M146.5,85.7v-0.6h0.5v0.6H146.5z M135.4,86.3
			v-0.6h0.6v0.6H135.4z M137.6,86.3v-0.6h0.6v0.6H137.6z M138.1,86.3v-0.6h0.6v0.6H138.1z M138.7,86.3v-0.6h0.6v0.6H138.7z
			 M139.8,86.3v-0.6h0.6v0.6H139.8z M140.9,86.3v-0.6h0.6v0.6H140.9z M142,86.3v-0.6h0.6v0.6H142z M143.1,86.3v-0.6h0.6v0.6H143.1z
			 M144.2,86.3v-0.6h0.6v0.6H144.2z M146.5,86.3v-0.6h0.5v0.6H146.5z M147,86.3v-0.6h0.6v0.6H147z M135.4,86.8v-0.6h0.6v0.6H135.4z
			 M135.9,86.8v-0.6h0.6v0.6H135.9z M139.8,86.8v-0.6h0.6v0.6H139.8z M140.4,86.8v-0.6h0.6v0.6H140.4z M141.5,86.8v-0.6h0.5v0.6
			H141.5z M143.1,86.8v-0.6h0.6v0.6H143.1z M144.2,86.8v-0.6h0.6v0.6H144.2z M144.8,86.8v-0.6h0.6v0.6H144.8z M145.3,86.8v-0.6h0.6
			v0.6H145.3z M145.9,86.8v-0.6h0.6v0.6H145.9z M146.5,86.8v-0.6h0.5v0.6H146.5z M135.4,87.4v-0.6h0.6v0.6H135.4z M135.9,87.4v-0.6
			h0.6v0.6H135.9z M137.6,87.4v-0.6h0.6v0.6H137.6z M139.8,87.4v-0.6h0.6v0.6H139.8z M140.4,87.4v-0.6h0.6v0.6H140.4z M140.9,87.4
			v-0.6h0.6v0.6H140.9z M144.2,87.4v-0.6h0.6v0.6H144.2z M145.3,87.4v-0.6h0.6v0.6H145.3z M147,87.4v-0.6h0.6v0.6H147z M135.4,88
			v-0.6h0.6V88H135.4z M135.9,88v-0.6h0.6V88H135.9z M138.1,88v-0.6h0.6V88H138.1z M138.7,88v-0.6h0.6V88H138.7z M139.8,88v-0.6h0.6
			V88H139.8z M140.4,88v-0.6h0.6V88H140.4z M140.9,88v-0.6h0.6V88H140.9z M141.5,88v-0.6h0.5V88H141.5z M142,88v-0.6h0.6V88H142z
			 M142.6,88v-0.6h0.6V88H142.6z M143.7,88v-0.6h0.6V88H143.7z M144.8,88v-0.6h0.6V88H144.8z M145.3,88v-0.6h0.6V88H145.3z
			 M145.9,88v-0.6h0.6V88H145.9z M135.4,88.6V88h0.6v0.6H135.4z M135.9,88.6V88h0.6v0.6H135.9z M137,88.6V88h0.6v0.6H137z
			 M137.6,88.6V88h0.6v0.6H137.6z M138.1,88.6V88h0.6v0.6H138.1z M138.7,88.6V88h0.6v0.6H138.7z M140.4,88.6V88h0.6v0.6H140.4z
			 M141.5,88.6V88h0.5v0.6H141.5z M142.6,88.6V88h0.6v0.6H142.6z M143.7,88.6V88h0.6v0.6H143.7z M144.2,88.6V88h0.6v0.6H144.2z
			 M144.8,88.6V88h0.6v0.6H144.8z M145.3,88.6V88h0.6v0.6H145.3z M145.9,88.6V88h0.6v0.6H145.9z M146.5,88.6V88h0.5v0.6H146.5z
			 M147,88.6V88h0.6v0.6H147z M135.4,89.1v-0.6h0.6v0.6H135.4z M135.9,89.1v-0.6h0.6v0.6H135.9z M137,89.1v-0.6h0.6v0.6H137z
			 M139.3,89.1v-0.6h0.6v0.6H139.3z M140.4,89.1v-0.6h0.6v0.6H140.4z M140.9,89.1v-0.6h0.6v0.6H140.9z M142,89.1v-0.6h0.6v0.6H142z
			 M143.1,89.1v-0.6h0.6v0.6H143.1z M144.2,89.1v-0.6h0.6v0.6H144.2z M145.9,89.1v-0.6h0.6v0.6H145.9z M135.4,89.7v-0.6h0.6v0.6
			H135.4z M136.5,89.7v-0.6h0.5v0.6H136.5z M138.1,89.7v-0.6h0.6v0.6H138.1z M140.4,89.7v-0.6h0.6v0.6H140.4z M140.9,89.7v-0.6h0.6
			v0.6H140.9z M141.5,89.7v-0.6h0.5v0.6H141.5z M142,89.7v-0.6h0.6v0.6H142z M143.1,89.7v-0.6h0.6v0.6H143.1z M143.7,89.7v-0.6h0.6
			v0.6H143.7z M144.8,89.7v-0.6h0.6v0.6H144.8z M145.9,89.7v-0.6h0.6v0.6H145.9z M146.5,89.7v-0.6h0.5v0.6H146.5z M147,89.7v-0.6
			h0.6v0.6H147z M135.4,90.2v-0.6h0.6v0.6H135.4z M138.1,90.2v-0.6h0.6v0.6H138.1z M139.3,90.2v-0.6h0.6v0.6H139.3z M140.4,90.2
			v-0.6h0.6v0.6H140.4z M140.9,90.2v-0.6h0.6v0.6H140.9z M141.5,90.2v-0.6h0.5v0.6H141.5z M142.6,90.2v-0.6h0.6v0.6H142.6z
			 M143.1,90.2v-0.6h0.6v0.6H143.1z M143.7,90.2v-0.6h0.6v0.6H143.7z M145.3,90.2v-0.6h0.6v0.6H145.3z M135.3,90.8v-0.6h0.6v0.6
			H135.3z M135.9,90.8v-0.6h0.6v0.6H135.9z M137,90.8v-0.6h0.6v0.6H137z M138.1,90.8v-0.6h0.6v0.6H138.1z M139.8,90.8v-0.6h0.6v0.6
			H139.8z M140.3,90.8v-0.6h0.6v0.6H140.3z M140.9,90.8v-0.6h0.6v0.6H140.9z M142,90.8v-0.6h0.6v0.6H142z M143.1,90.8v-0.6h0.6v0.6
			H143.1z M143.7,90.8v-0.6h0.6v0.6H143.7z M145.3,90.8v-0.6h0.6v0.6H145.3z M146.4,90.8v-0.6h0.6v0.6H146.4z M147,90.8v-0.6h0.6
			v0.6H147z M135.3,91.3v-0.6h0.6v0.6H135.3z M135.9,91.3v-0.6h0.6v0.6H135.9z M136.5,91.3v-0.6h0.5v0.6H136.5z M137,91.3v-0.6h0.6
			v0.6H137z M138.1,91.3v-0.6h0.6v0.6H138.1z M138.7,91.3v-0.6h0.6v0.6H138.7z M139.2,91.3v-0.6h0.6v0.6H139.2z M140.3,91.3v-0.6
			h0.6v0.6H140.3z M141.4,91.3v-0.6h0.6v0.6H141.4z M144.8,91.3v-0.6h0.6v0.6H144.8z M135.3,91.9v-0.6h0.6v0.6H135.3z M135.9,91.9
			v-0.6h0.6v0.6H135.9z M137,91.9v-0.6h0.6v0.6H137z M137.6,91.9v-0.6h0.6v0.6H137.6z M138.1,91.9v-0.6h0.6v0.6H138.1z M138.7,91.9
			v-0.6h0.6v0.6H138.7z M141.4,91.9v-0.6h0.6v0.6H141.4z M142,91.9v-0.6h0.6v0.6H142z M142.5,91.9v-0.6h0.6v0.6H142.5z M143.1,91.9
			v-0.6h0.6v0.6H143.1z M143.7,91.9v-0.6h0.6v0.6H143.7z M144.8,91.9v-0.6h0.6v0.6H144.8z M145.3,91.9v-0.6h0.6v0.6H145.3z
			 M145.9,91.9v-0.6h0.6v0.6H145.9z M147,91.9v-0.6h0.6v0.6H147z M135.3,92.4v-0.6h0.6v0.6H135.3z M136.5,92.4v-0.6h0.5v0.6H136.5z
			 M137.6,92.4v-0.6h0.6v0.6H137.6z M138.7,92.4v-0.6h0.6v0.6H138.7z M140.3,92.4v-0.6h0.6v0.6H140.3z M141.4,92.4v-0.6h0.6v0.6
			H141.4z M142,92.4v-0.6h0.6v0.6H142z M143.7,92.4v-0.6h0.6v0.6H143.7z M144.2,92.4v-0.6h0.6v0.6H144.2z M144.8,92.4v-0.6h0.6v0.6
			H144.8z M145.9,92.4v-0.6h0.6v0.6H145.9z M135.3,93v-0.6h0.6V93H135.3z M137,93v-0.6h0.6V93H137z M139.2,93v-0.6h0.6V93H139.2z
			 M139.8,93v-0.6h0.6V93H139.8z M140.9,93v-0.6h0.6V93H140.9z M141.4,93v-0.6h0.6V93H141.4z M142,93v-0.6h0.6V93H142z M144.2,93
			v-0.6h0.6V93H144.2z M146.4,93v-0.6h0.6V93H146.4z M147,93v-0.6h0.6V93H147z M135.3,93.5V93h0.6v0.6L135.3,93.5L135.3,93.5z
			 M135.9,93.5V93h0.6v0.6L135.9,93.5L135.9,93.5z M139.2,93.5V93h0.6v0.6L139.2,93.5L139.2,93.5z M139.8,93.5V93h0.6v0.6
			L139.8,93.5L139.8,93.5z M140.9,93.5V93h0.6v0.6L140.9,93.5L140.9,93.5z M141.4,93.5V93h0.6v0.6L141.4,93.5L141.4,93.5z M142,93.5
			V93h0.6v0.6L142,93.5L142,93.5z M142.5,93.5V93h0.6v0.6L142.5,93.5L142.5,93.5z M143.1,93.5V93h0.6v0.6L143.1,93.5L143.1,93.5z
			 M144.8,93.5V93h0.6v0.6L144.8,93.5L144.8,93.5z M146.4,93.5V93h0.6v0.6L146.4,93.5L146.4,93.5z M135.4,94v-0.6h0.6V94H135.4z
			 M135.9,94v-0.6h0.6V94H135.9z M136.5,94v-0.6h0.5V94H136.5z M138.1,94v-0.6h0.6V94H138.1z M138.7,94v-0.6h0.6V94H138.7z
			 M139.2,94v-0.6h0.6V94H139.2z M140.4,94v-0.6h0.6V94H140.4z M141.5,94v-0.6h0.5V94H141.5z M142.6,94v-0.6h0.6V94H142.6z
			 M143.7,94v-0.6h0.6V94H143.7z M144.2,94v-0.6h0.6V94H144.2z M144.8,94v-0.6h0.6V94H144.8z M145.9,94v-0.6h0.6V94H145.9z M147,94
			v-0.6h0.6V94H147z M135.4,94.6V94h0.6v0.6H135.4z M135.9,94.6V94h0.6v0.6H135.9z M136.5,94.6V94h0.5v0.6H136.5z M137,94.6V94h0.6
			v0.6H137z M137.6,94.6V94h0.6v0.6H137.6z M138.1,94.6V94h0.6v0.6H138.1z M138.7,94.6V94h0.6v0.6H138.7z M139.2,94.6V94h0.6v0.6
			H139.2z M142,94.6V94h0.6v0.6H142z M145.9,94.6V94h0.6v0.6H145.9z M146.4,94.6V94h0.6v0.6H146.4z M135.4,95.1v-0.5h0.6v0.6
			L135.4,95.1z M135.9,95.1v-0.5h0.6v0.6L135.9,95.1z M136.5,95.1v-0.5h0.5v0.6L136.5,95.1z M137.6,95.1v-0.5h0.6v0.6L137.6,95.1z
			 M138.7,95.1v-0.5h0.6v0.6L138.7,95.1z M139.2,95.1v-0.5h0.6v0.6L139.2,95.1z M140.4,95.1v-0.5h0.6v0.6L140.4,95.1z M140.9,95.1
			v-0.5h0.6v0.6L140.9,95.1z M141.5,95.1v-0.5h0.5v0.6L141.5,95.1z M144.2,95.1v-0.5h0.6v0.6L144.2,95.1z M146.5,95.1v-0.5h0.5v0.6
			L146.5,95.1z M147,95.1v-0.5h0.6v0.6L147,95.1z M135.4,95.7v-0.6h0.6v0.6H135.4z M135.9,95.7v-0.6h0.6v0.6H135.9z M137,95.7v-0.6
			h0.6v0.6H137z M138.1,95.7v-0.6h0.6v0.6H138.1z M138.7,95.7v-0.6h0.6v0.6H138.7z M140.4,95.7v-0.6h0.6v0.6H140.4z M140.9,95.7
			v-0.6h0.6v0.6H140.9z M143.7,95.7v-0.6h0.6v0.6H143.7z M145.3,95.7v-0.6h0.6v0.6H145.3z M135.3,96.2v-0.5h0.6v0.6L135.3,96.2z
			 M135.9,96.2v-0.5h0.6v0.6L135.9,96.2z M136.5,96.2v-0.5h0.5v0.6L136.5,96.2z M137,96.2v-0.5h0.6v0.6L137,96.2z M137.6,96.2v-0.5
			h0.6v0.6L137.6,96.2z M138.1,96.2v-0.5h0.6v0.6L138.1,96.2z M138.7,96.2v-0.5h0.6v0.6L138.7,96.2z M139.2,96.2v-0.5h0.6v0.6
			L139.2,96.2z M139.8,96.2v-0.5h0.6v0.6L139.8,96.2z M140.3,96.2v-0.5h0.6v0.6L140.3,96.2z M140.9,96.2v-0.5h0.6v0.6L140.9,96.2z
			 M141.4,96.2v-0.5h0.6v0.6L141.4,96.2z M142,96.2v-0.5h0.6v0.6L142,96.2z M142.5,96.2v-0.5h0.6v0.6L142.5,96.2z M143.1,96.2v-0.5
			h0.6v0.6L143.1,96.2z M143.7,96.2v-0.5h0.6v0.6L143.7,96.2z M144.2,96.2v-0.5h0.6v0.6L144.2,96.2z M144.8,96.2v-0.5h0.6v0.6
			L144.8,96.2z M145.3,96.2v-0.5h0.6v0.6L145.3,96.2z M145.9,96.2v-0.5h0.6v0.6L145.9,96.2z M146.4,96.2v-0.5h0.6v0.6L146.4,96.2z
			 M147,96.2v-0.5h0.6v0.6L147,96.2z"/>
		<path class="st0" d="M56.3,124.6c0-1.4,0.8-1.8,2.2-1.8h1.8c2.1,0,2.4,0.5,2.4,1.8h-1.5v-0.1c0-0.3-0.2-0.4-0.7-0.4h-1.6
			c-0.8,0-0.9,0.4-0.9,1v0.5c0,0.7,0.2,1,0.9,1h1.6c0.7,0,0.9-0.1,0.9-0.7h1.5v0.4c0,0.8-0.3,1.5-1.8,1.5h-2.4
			c-1.3,0-2.2-0.3-2.2-1.8v-1.4H56.3z"/>
		<rect x="70.1" y="122.9" class="st0" width="1.5" height="4.9"/>
		<path class="st0" d="M79.1,122.9h4.5c1.2,0,1.5,0.6,1.5,1.4v0.3c0,0.7-0.2,1-0.8,1.2l0,0c0.4,0.1,0.8,0.3,0.8,1.1v0.8h-1.5v-0.6
			c0-0.5-0.1-0.7-0.6-0.7h-2.3v1.3h-1.5L79.1,122.9L79.1,122.9z M80.6,125.3h2.5c0.4,0,0.6-0.2,0.6-0.5v-0.2c0-0.4-0.2-0.5-0.7-0.5
			h-2.3L80.6,125.3z"/>
		<path class="st0" d="M92.4,124.6c0-1.4,0.8-1.8,2.2-1.8h1.8c2.1,0,2.4,0.5,2.4,1.8h-1.5v-0.1c0-0.3-0.3-0.4-0.7-0.4H95
			c-0.8,0-0.9,0.4-0.9,1v0.5c0,0.7,0.2,1,0.9,1h1.6c0.7,0,0.9-0.1,0.9-0.7H99v0.4c0,0.8-0.3,1.5-1.8,1.5h-2.4
			c-1.3,0-2.2-0.3-2.2-1.8v-1.4H92.4z"/>
		<path class="st0" d="M106.2,122.9h1.5v2.8c0,0.6,0.2,0.9,0.8,0.9h1.5c0.6,0,0.8-0.2,0.8-0.9v-2.8h1.5v3.1c0,1.2-0.6,1.8-2,1.8
			h-2.1c-1.4,0-2-0.6-2-1.8L106.2,122.9z"/>
		<rect x="119.8" y="122.9" class="st0" width="1.5" height="4.9"/>
		<polygon class="st0" points="128.5,122.9 134.2,122.9 134.2,124.1 132.1,124.1 132.1,127.8 130.6,127.8 130.6,124.1 128.5,124.1 
					"/>
		<path class="st0" d="M141.2,126.2h1.5c0,0.5,0.2,0.6,0.6,0.6h1.8c0.3,0,0.6,0,0.6-0.4s-0.2-0.4-2.1-0.4c-2.2,0-2.5-0.3-2.5-1.5
			c0-0.9,0.1-1.6,2-1.6h2.1c1.7,0,1.9,0.6,1.9,1.4v0.2h-1.5c0-0.4,0-0.5-0.7-0.5h-1.6c-0.3,0-0.6,0.1-0.6,0.4c0,0.4,0.2,0.4,1.8,0.4
			c2.3,0,2.9,0.1,2.9,1.6s-0.4,1.5-2.4,1.5h-1.8c-1.4,0-1.9-0.3-1.9-1.3L141.2,126.2z"/>
		<path class="st0" d="M51.6,118.1h16l1.1,2.3h9.6L64.1,83.6h-9.2l-16.3,44.1h9.6L51.6,118.1z M54.2,109.9l5.3-14.7l5.2,14.7H54.2z"
			/>
		<polygon class="st0" points="83.2,84 92.2,84 92.2,114.6 112.7,114.6 112.7,120.3 83.3,120.3 		"/>
		<polygon class="st0" points="117.8,84 126.9,84 126.9,114.6 147.4,114.6 147.4,120.3 117.9,120.3 		"/>
	</g>
</g>
</svg>
