<?xml version="1.0" encoding="utf-8"?>
<!-- Generator: Adobe Illustrator 25.2.1, SVG Export Plug-In . SVG Version: 6.00 Build 0)  -->
<svg version="1.1" id="Calque_1" xmlns="http://www.w3.org/2000/svg" xmlns:xlink="http://www.w3.org/1999/xlink" x="0px" y="0px"
	 viewBox="0 0 218.9 189.7" style="enable-background:new 0 0 218.9 189.7;" xml:space="preserve">
<style type="text/css">
	.st0{fill:#6C7071;}
</style>
<g id="Calque_2_1_">
	<g id="Picto_Top50">
		<path class="st0" d="M47.8,143L47.8,143L47.8,143L47.8,143z"/>
		<path class="st0" d="M56.2,166.5c-9.7-2.2-19.5-3.3-29.4-3.1l-4.8-8.8c-7.7,4.1-15,8.8-22,14.1c5.6,0.9,11.1,2.1,16.5,3.7
			c-0.8,5.4-1.3,10.8-1.5,16.3C27.9,179.9,41.7,172.5,56.2,166.5z"/>
		<path class="st0" d="M171.1,143h0.1H171.1v0.1V143z"/>
		<path class="st0" d="M218.9,168.7c-6.9-5.2-14.3-9.9-21.9-14.1l-4.8,8.8c-9.9-0.2-19.8,0.9-29.4,3.1c14.4,6,28.2,13.4,41.1,22.2
			c-0.2-5.5-0.6-10.9-1.4-16.3C207.8,170.8,213.3,169.6,218.9,168.7z"/>
		<path class="st0" d="M202.6,82.7c-3.4-4.1-5.1-11.6-3.8-16.8c1.1-5.5-1.3-11.2-6-14.2c-4.6-2.7-8.8-9.2-9.3-14.4
			c-0.8-5.5-5-10-10.4-11.3c-5.2-1-11.4-5.6-13.7-10.4c-2.7-4.9-8.1-7.7-13.7-7c-5.2,0.9-12.6-1.4-16.4-5.1C125.1-0.2,119-1,114,1.6
			c-4.6,2.6-12.3,3-17.2,0.8c-5.2-2.1-11.2-0.7-15,3.4c-3.4,4-10.6,7-15.8,6.6c-5.6-0.2-10.8,3.1-13,8.3c-1.8,5-7.5,10.2-12.6,11.7
			c-5.3,1.8-9,6.6-9.3,12.3c0,5.3-3.6,12.2-7.9,15.3c-4.4,3.5-6.2,9.3-4.6,14.7c1.8,5,0.8,12.7-2.2,17c-3,4.8-2.7,10.9,0.7,15.4
			c3.4,4.1,5.1,11.6,3.8,16.8c-1.1,5.5,1.3,11.2,6,14.2c4.6,2.7,8.8,9.2,9.3,14.4c0.8,5.6,5,10.1,10.5,11.3
			c5.2,0.9,11.4,5.6,13.7,10.4c2.7,5,8.1,7.8,13.7,7.1c5.2-0.9,12.6,1.4,16.4,5.1c4.2,3.7,10.3,4.5,15.3,1.9
			c4.6-2.6,12.3-3,17.2-0.8c5.2,2.1,11.2,0.7,15-3.4c3.4-4,10.6-7,15.8-6.6c5.6,0.2,10.8-3.1,13-8.3c1.8-5,7.5-10.2,12.6-11.7
			c5.3-1.8,9-6.6,9.3-12.3c0-5.3,3.6-12.2,7.9-15.3c4.4-3.5,6.2-9.3,4.6-14.7c-1.8-5-0.8-12.7,2.2-17
			C206.4,93.3,206.1,87.2,202.6,82.7z M110,166.6c-39.6,0-71.8-32.1-71.8-71.8S70.4,23.1,110,23.1s71.8,32.1,71.8,71.8
			C181.8,134.5,149.6,166.6,110,166.6L110,166.6z"/>
		<polygon class="st0" points="92.6,160.4 95.6,158.6 98.6,160.4 97.9,156.9 100.5,154.6 97,154.3 95.6,151.1 94.2,154.3 
			90.7,154.6 93.3,156.9 		"/>
		<polygon class="st0" points="106.7,160.1 110.4,157.9 114.1,160.1 113.1,155.9 116.3,153.1 112.1,152.7 110.4,148.7 108.7,152.7 
			104.4,153.1 107.6,155.9 		"/>
		<polygon class="st0" points="122.3,160.4 125.3,158.6 128.4,160.4 127.6,156.9 130.3,154.6 126.8,154.3 125.3,151.1 123.9,154.3 
			120.4,154.6 123.1,156.9 		"/>
		<g>
			<path class="st0" d="M83.2,45.9v-3.6h16.1v3.6h-5.9V62h-4.3V46L83.2,45.9z"/>
			<path class="st0" d="M101.4,48.1c0.4-1.2,1.1-2.3,1.9-3.3c0.8-0.9,1.9-1.7,3-2.2c2.6-1.1,5.5-1.1,8.1,0c1.1,0.5,2.2,1.3,3,2.2
				c0.8,1,1.5,2.1,1.9,3.3c0.4,1.3,0.7,2.7,0.7,4.1c0,1.4-0.2,2.7-0.7,4c-0.4,1.2-1.1,2.3-1.9,3.2s-1.9,1.7-3,2.2
				c-2.6,1-5.5,1-8.1,0c-1.1-0.5-2.2-1.2-3-2.2c-0.8-0.9-1.5-2-1.9-3.2c-0.4-1.3-0.7-2.6-0.7-4C100.8,50.8,101,49.4,101.4,48.1z
				 M105.4,54.6c0.2,0.8,0.5,1.5,0.9,2.1s1,1.1,1.7,1.5c1.6,0.8,3.4,0.8,5,0c0.7-0.4,1.2-0.9,1.7-1.5c0.4-0.6,0.7-1.4,0.9-2.1
				c0.2-0.8,0.3-1.6,0.3-2.4c0-0.8-0.1-1.7-0.3-2.5c-0.2-0.8-0.5-1.5-0.9-2.2c-0.4-0.6-1-1.2-1.7-1.5c-1.6-0.8-3.4-0.8-5,0
				c-0.7,0.4-1.2,0.9-1.7,1.5c-0.4,0.7-0.8,1.4-0.9,2.2c-0.2,0.8-0.3,1.7-0.3,2.5C105.1,53,105.2,53.8,105.4,54.6L105.4,54.6z"/>
			<path class="st0" d="M131.9,42.3c1.1,0,2.1,0.2,3.1,0.5c0.8,0.3,1.5,0.8,2.1,1.4c0.5,0.6,0.9,1.3,1.2,2c0.2,0.8,0.4,1.5,0.4,2.3
				s-0.1,1.6-0.4,2.3c-0.2,0.7-0.7,1.4-1.2,2c-0.6,0.6-1.3,1.1-2.1,1.4c-1,0.4-2.1,0.6-3.1,0.5h-4.5V62h-4.3V42.3H131.9z
				 M130.8,51.5c0.5,0,1,0,1.4-0.1s0.8-0.2,1.2-0.4s0.6-0.5,0.8-0.9c0.2-0.5,0.3-1,0.3-1.5s-0.1-1-0.3-1.5c-0.2-0.4-0.5-0.7-0.8-0.9
				c-0.4-0.2-0.8-0.4-1.2-0.4c-0.5-0.1-1-0.1-1.4-0.1h-3.4v5.9L130.8,51.5L130.8,51.5z"/>
		</g>
		<path class="st0" d="M14.7,141.4c4.8,8.8,7.2,13.2,12,22c55.5-26.7,109.9-26.7,165.4,0l12-22C141.3,110.6,77.6,110.6,14.7,141.4z
			 M83.4,141.9l-1.8-18.4l13.8-1.3l0.3,3.4l-9.7,0.9l0.4,3.9l8.9-0.8l0.3,3.1l-8.9,0.9l0.4,4.5l9.9-0.9l0.3,3.4L83.4,141.9z
			 M119.6,140.4h-3.8l0.1-13.1h-0.1l-4.6,13.1h-3.1l-4.5-13h-0.1v13h-3.8l0.1-18.5h5.7l4.3,12.7h0.1l4.1-12.7h5.7L119.6,140.4z
			 M137.8,129.2l-3.9-0.4c0-0.5,0-1-0.2-1.4s-0.4-0.7-0.7-0.9c-0.3-0.3-0.7-0.4-1.1-0.6c-0.4-0.1-0.9-0.2-1.4-0.3c-0.3,0-0.7,0-1,0
			s-0.6,0.1-0.9,0.3c-0.3,0.1-0.5,0.3-0.7,0.6c-0.2,0.3-0.3,0.6-0.4,1c0,0.3,0,0.6,0.1,0.9c0.2,0.3,0.4,0.5,0.7,0.7
			c0.5,0.3,1.1,0.5,1.6,0.7l2.7,1c0.3,0.1,0.8,0.3,1.4,0.5c0.6,0.3,1.2,0.6,1.7,1.1c0.6,0.5,1.1,1.1,1.4,1.7
			c0.4,0.8,0.5,1.7,0.4,2.6c-0.1,0.8-0.3,1.6-0.7,2.3s-1,1.3-1.6,1.7c-0.8,0.5-1.6,0.8-2.5,1c-1.1,0.2-2.2,0.2-3.4,0.1
			c-1-0.1-2-0.3-2.9-0.7c-0.9-0.3-1.7-0.8-2.4-1.4c-0.7-0.6-1.2-1.4-1.5-2.2c-0.4-1-0.5-2-0.3-3l3.9,0.4c-0.1,0.5,0,1.1,0.2,1.6
			c0.2,0.4,0.4,0.8,0.8,1.1s0.8,0.6,1.3,0.7c0.5,0.2,1,0.3,1.5,0.4c0.4,0,0.8,0,1.2,0s0.8-0.1,1.2-0.2c0.4-0.1,0.7-0.3,1-0.6
			s0.5-0.7,0.5-1.1c0.1-0.5-0.1-0.9-0.4-1.3c-0.3-0.4-0.7-0.7-1.2-0.9c-0.5-0.3-1.1-0.5-1.7-0.7c-0.6-0.2-1.3-0.5-1.9-0.7
			c-0.7-0.2-1.3-0.5-1.9-0.8s-1.2-0.7-1.7-1.1c-0.5-0.5-0.8-1-1.1-1.6c-0.3-0.7-0.4-1.5-0.3-2.2c0.1-0.9,0.4-1.7,0.8-2.4
			c0.5-0.6,1.1-1.2,1.8-1.6c0.7-0.4,1.5-0.7,2.3-0.8c0.8-0.1,1.7-0.2,2.5-0.1c0.9,0.1,1.9,0.3,2.7,0.6c0.8,0.3,1.6,0.7,2.2,1.3
			c0.6,0.5,1.1,1.2,1.4,2C137.8,127.3,137.9,128.3,137.8,129.2z"/>
	</g>
</g>
<g>
	<path class="st0" d="M74.5,103h5.3V76.2l-5.7,4.3l-3-3l10.4-9.3h5.2l0,0l0,0V103H92v4.5H74.5V103z"/>
	<path class="st0" d="M95.5,79.5c0-1.7,0.2-3.2,0.6-4.4c0.4-1.2,0.9-2.3,1.5-3.1c0.6-0.8,1.3-1.5,2.1-2.1c0.8-0.5,1.6-0.9,2.4-1.2
		c0.8-0.3,1.7-0.5,2.5-0.6c0.8-0.1,1.6-0.1,2.3-0.1c0.7,0,1.4,0,2.2,0.1c0.8,0.1,1.6,0.3,2.5,0.5c0.8,0.3,1.6,0.7,2.4,1.2
		c0.8,0.5,1.5,1.2,2.1,2.1c0.6,0.9,1.1,1.9,1.5,3.2c0.4,1.3,0.6,2.8,0.6,4.5V96c0,1.7-0.2,3.2-0.6,4.4s-0.9,2.3-1.5,3.2
		c-0.6,0.9-1.3,1.6-2.1,2.1c-0.8,0.5-1.6,1-2.4,1.3c-0.8,0.3-1.6,0.5-2.5,0.6c-0.8,0.1-1.5,0.2-2.2,0.2c-0.7,0-1.5-0.1-2.3-0.2
		c-0.8-0.1-1.7-0.3-2.5-0.6c-0.8-0.3-1.7-0.7-2.4-1.3c-0.8-0.5-1.5-1.2-2.1-2.1c-0.6-0.9-1.1-1.9-1.4-3.2c-0.4-1.3-0.5-2.7-0.5-4.5
		V79.5z M102.6,98.5c0,1.6,0.3,2.8,1,3.5c0.7,0.7,1.7,1.1,3.2,1.1c1.4,0,2.4-0.4,3.1-1.1c0.7-0.7,1-1.9,1-3.5V77.3
		c0-1.7-0.3-3-1-3.7c-0.7-0.8-1.7-1.2-3.1-1.2c-1.4,0-2.5,0.4-3.2,1.2c-0.7,0.8-1,2-1,3.7V98.5z"/>
	<path class="st0" d="M123.6,79.5c0-1.7,0.2-3.2,0.5-4.4c0.4-1.2,0.9-2.3,1.5-3.1s1.3-1.5,2.1-2.1c0.8-0.5,1.6-0.9,2.4-1.2
		c0.8-0.3,1.7-0.5,2.5-0.6c0.8-0.1,1.6-0.1,2.3-0.1c0.7,0,1.4,0,2.2,0.1c0.8,0.1,1.6,0.3,2.5,0.5c0.8,0.3,1.6,0.7,2.4,1.2
		c0.8,0.5,1.5,1.2,2.1,2.1c0.6,0.9,1.1,1.9,1.5,3.2c0.4,1.3,0.6,2.8,0.6,4.5V96c0,1.7-0.2,3.2-0.6,4.4s-0.9,2.3-1.5,3.2
		c-0.6,0.9-1.3,1.6-2.1,2.1c-0.8,0.5-1.6,1-2.4,1.3c-0.8,0.3-1.6,0.5-2.5,0.6s-1.5,0.2-2.2,0.2c-0.7,0-1.5-0.1-2.3-0.2
		c-0.8-0.1-1.7-0.3-2.5-0.6c-0.8-0.3-1.7-0.7-2.4-1.3c-0.8-0.5-1.5-1.2-2.1-2.1c-0.6-0.9-1.1-1.9-1.4-3.2c-0.4-1.3-0.5-2.7-0.5-4.5
		V79.5z M130.7,98.5c0,1.6,0.3,2.8,1,3.5c0.7,0.7,1.7,1.1,3.2,1.1c1.4,0,2.4-0.4,3.1-1.1c0.7-0.7,1-1.9,1-3.5V77.3
		c0-1.7-0.3-3-1-3.7c-0.7-0.8-1.7-1.2-3.1-1.2c-1.4,0-2.5,0.4-3.2,1.2c-0.7,0.8-1,2-1,3.7V98.5z"/>
</g>
</svg>
